<svg xmlns="http://www.w3.org/2000/svg" width="100%" viewBox="0 0 1024 1024" height="150" xmlns:v="https://vecta.io/nano"><path d="M449 836.35c-29.996-.004-59.495.274-88.987-.078-47.918-.572-82.16-23.421-102.503-66.184-16.81-35.336-14.781-70.937 2.896-105.739l91.823-180.892 36.61-71.631c6.023-11.06 6.592-22.538 6.673-34.302l.199-98.985c.016-3.845-1.185-5.085-5.111-5.33-23.493-1.468-41.395-27.871-34.454-50.379 7.041-22.833 23.293-32.792 43.708-32.931l225.467-.165c16.567.026 33.621 12.722 39.401 28.534 6.116 16.729 1.7 33.875-11.947 45.667-6.225 5.379-13.79 8.059-21.77 9.256-3.527.529-4.99 1.805-4.983 5.324l.149 116.482c.009 4.477 2.298 8.315 4.206 12.176l73.746 144.114L765.41 672.04c7.265 14.402 9.448 29.862 10.104 45.897 1.026 25.095-5.253 48.089-19.232 68.522-22.049 32.231-52.875 49.617-92.312 49.769L449 836.35m144.888-582.755c3.527-6.309 9.062-10.117 15.745-12.345 4.026-1.342 8.286-.318 12.412-.776 5.274-.585 9.363-4.162 9.365-8.109.002-3.976-4.203-7.04-9.791-7.132l-2-.011-216.961.089c-2.145.001-4.322-.265-6.4.68-2.701 1.228-5.071 2.835-5.383 6.016-.287 2.934 1.543 4.93 3.68 6.705 3.178 2.639 6.95 1.992 10.548 1.909 8.195-.189 14.469 3.454 19.383 9.61 5.259 6.588 7.845 14.212 7.845 22.681l.023 124.477c.007 6.26-.994 12.259-3.755 17.896l-21.183 43.004-114.291 223.267c-8.607 16.716-10.567 34.357-8.341 52.399 4.471 36.241 35.303 67.754 78.215 67.378l302.443-.35c3.823-.002 7.717.013 11.456-.658 34.61-6.202 60.5-40.623 61.852-75.287.737-18.895-5.544-35.475-14.025-51.819L644.48 517.274l-44.49-86.674c-7.87-14.781-11.951-29.754-11.568-46.722.816-36.142.328-72.315.208-108.475-.025-7.519 1.442-14.521 5.258-21.807z"/><path d="M435.421 588.067c9.904-3.617 19.298-3.175 28.456 1.145 1.906.899 3.468 1.711 5.466.139l21.333-16.518c2.453-1.917 3.997-4.33 3.986-7.671l-.057-53.987c-.001-.646-.187-1.291-.277-1.876-1.861-.983-2.96.377-4.136 1.133-2.942 1.89-5.761 3.972-8.709 5.852-5.481 3.495-9.561 7.209-11.537 14.385-4.05 14.709-17.127 22.998-32.157 22.629-14.599-.358-27.677-9.944-31.294-24.313-6.675-26.52 15.105-44.913 35.963-41.627 5.528.871 10.737 2.172 15.397 5.319 1.32.892 2.654 1.385 4.151.352 8.617-5.947 17.963-10.897 25.133-18.806 5.2-5.735 7.445-12.527 7.462-20.099l.123-84.981c.014-3.212-1.145-5.083-3.65-6.987-13.436-10.214-18.158-25.024-13.104-40.202 4.307-12.935 16.151-21.172 30.638-21.306 15.132-.14 26.833 7.549 31.534 20.72 5.485 15.369.966 30.351-12.407 40.188-2.693 1.982-2.537 4.421-2.539 7.06l-.064 99.977.127 68.484c.007 1.928-.522 3.981 1.096 6.422 5.295-3.326 10.814-6.247 16.617-8.586 1.803-.727 2.065-2.942 2.906-4.533 7.617-14.408 22.778-21.198 38.19-17.054 15.585 4.191 26.195 18.086 24.994 34.188-.951 12.749-7.067 22.93-19.026 28.469-12.511 5.794-24.542 4.509-35.788-3.749-2.484-1.824-4.157-5.593-7.536-5.213-4.65.523-8.905 2.808-12.51 5.882-5.932 5.059-8.62 11.779-8.844 19.403-.25 8.492-.149 16.994-.15 25.492-.002 17.993 8.989 28.632 26.618 31.697 8.015 1.394 16.056 2.717 23.971 4.56 3.118.726 4.903.037 6.929-2.19 8.904-9.783 20.02-13.887 32.896-10.607 13.093 3.335 21.696 11.838 24.913 25.27 3.92 16.367-4.886 33.645-20.177 39.618-16.044 6.268-34.435-.323-42.424-15.578-1.653-3.157-3.645-4.79-6.921-5.664-5.957-1.589-11.973-2.749-18.066-3.663-9.515-1.427-19.094-2.779-28.1-9.681l.007 29.058c.005 2.448 2.233 3.148 3.679 4.406 11.062 9.618 16.04 21.381 12.857 36.063-3.291 15.181-16.516 25.572-32.629 25.645-15.232.069-28.491-10.356-32.015-25.172-3.686-15.496 1.578-28.973 15.023-38.107 1.803-1.225 2.91-2.442 2.904-4.767l-.116-86.979c-.001-.444-.289-.887-.67-1.981-5.505 4.508-11.983 6.54-13.244 15.463-2.29 16.208-16.283 27.656-31.792 28.093-15.952.449-30.061-9.595-33.411-25.27-3.449-16.137 1.302-31.314 19.983-39.946m166.322 81.179c-1.937 2.646-3.222 5.394-1.669 8.732 2.066 4.443 7.562 6.411 11.738 4.151 3.941-2.132 5.408-8.369 2.867-12.188-2.861-4.3-7.578-4.775-12.935-.695M572.734 553.74c5.631 1.484 10.746-1.835 11.067-7.183.244-4.072-2.492-7.845-6.636-8.773-4.202-.941-7.066 1.112-8.877 4.707-2.082 4.132-.824 7.578 4.447 11.249m-116.275 65.667c-.447-1.402-.66-2.942-1.386-4.181-2.339-3.991-8.076-5.267-11.663-2.75-4.393 3.083-4.936 7.696-1.397 11.873 5.004 5.905 11.31 4.042 14.445-4.942m55.007 121.408c5.161-2.438 7.232-6.339 5.558-10.468-1.63-4.018-5.627-6.222-9.517-5.249-4.111 1.028-6.885 4.877-6.358 8.823.614 4.6 4.126 7.182 10.318 6.894m2.12-400.634c3.162-2.865 5.535-6.003 2.853-10.406-2.344-3.849-7.212-5.28-10.783-3.07-3.408 2.109-5.363 5.073-3.658 9.254 1.877 4.603 5.923 6.242 11.588 4.222m-69.493 185.47c3.205-3.321 3.943-6.943.762-10.595-2.986-3.428-7.811-3.723-11.145-.826-3.103 2.697-4.139 5.925-1.78 9.685 2.577 4.107 6.74 4.904 12.163 1.735z"/></svg>